<svg width="100" height="85" viewBox="0 0 100 85" fill="none" xmlns="http://www.w3.org/2000/svg">
<path d="M92.5302 42.5C92.5302 65.9721 73.5886 85 50.2231 85C26.8576 85 7.91605 65.9721 7.91605 42.5C7.91605 19.0279 26.8576 0 50.2231 0C73.5886 0 92.5302 19.0279 92.5302 42.5Z" fill="#F97316"/>
<path d="M42.6872 8.10156C45.8271 5.87695 48.9671 4.76465 52.1071 4.76465C55.7429 4.76465 58.4366 6.79004 60.1884 10.8408C61.6097 14.1279 62.8161 18.4941 63.8076 23.9395C64.8323 29.3848 65.6751 33.9004 66.3361 37.4863C67.9888 46.4512 70.2033 54.8184 72.9797 62.5879C81.5733 30.2812 86.0354 12.4678 86.3659 9.14746C86.432 8.61621 86.465 7.73633 86.465 6.50781C86.465 5.2793 86.1676 4.2168 85.5726 3.32031C85.5726 2.98828 86.0519 2.68945 87.0104 2.42383C87.9689 2.125 88.944 1.97559 89.9355 1.97559C92.9433 1.97559 95.3727 2.93848 97.2236 4.86426C99.0745 6.79004 100 8.81543 100 10.9404C100 13.0654 99.5538 15.8379 98.6614 19.2578C97.769 22.6777 96.2651 27.1602 94.1497 32.7051C92.0344 38.25 90.2826 42.7324 88.8944 46.1523C87.5062 49.5723 85.2091 55.0508 82.003 62.5879C78.8299 70.0918 76.8303 74.8232 76.004 76.7822C74.8471 77.0146 73.4424 77.1309 71.7898 77.1309C70.1702 77.1309 68.5837 76.8984 67.0302 76.4336C65.5098 76.002 64.4687 75.4043 63.9068 74.6406C63.1466 73.5449 61.1965 67.1201 58.0565 55.3662C54.9165 43.5791 52.9169 36.4238 52.0575 33.9004C51.1981 35.627 50.0909 39.4121 48.7357 45.2559C47.3806 51.0996 45.9428 57.1592 44.4224 63.4346C42.902 69.71 41.5138 74.1592 40.2578 76.7822C39.101 77.0146 37.7293 77.1309 36.1428 77.1309C34.5563 77.1309 33.0359 76.8984 31.5816 76.4336C30.1273 76.002 29.1522 75.4375 28.6564 74.7402C28.1606 74.0098 26.9212 70.5234 24.938 64.2812C22.9549 58.0059 20.8561 51.332 18.6415 44.2598C16.427 37.1543 14.0142 30.4307 11.4031 24.0889C8.82499 17.7139 6.74269 14.0283 5.15617 13.0322C4.56123 12.667 3.98281 12.4678 3.42092 12.4346C2.89208 12.4014 2.36325 12.3682 1.83441 12.335C1.30557 12.3018 0.958519 12.2852 0.793257 12.2852C0.264419 10.9902 0 10.0107 0 9.34668C0 8.64941 0.0165262 8.20117 0.0495786 8.00195C4.84218 5.3125 10.4776 3.96777 16.9559 3.96777C18.0797 3.96777 18.906 3.98438 19.4348 4.01758C20.0959 4.71484 21.2362 7.78613 22.8557 13.2314C24.4753 18.6436 26.7229 26.5293 29.5984 36.8887C32.507 47.248 35.019 55.9141 37.1344 62.8867C41.7286 41.4707 45.2157 27.3594 47.5954 20.5527C46.2072 16.668 44.5711 12.5176 42.6872 8.10156Z" fill="white"/>
</svg>
